<?xml version="1.0" encoding="UTF-8"?>
<!--Generator: Apple Native CoreSVG 123-->
<!DOCTYPE svg
PUBLIC "-//W3C//DTD SVG 1.1//EN"
       "http://www.w3.org/Graphics/SVG/1.1/DTD/svg11.dtd">
<svg version="1.1" xmlns="http://www.w3.org/2000/svg" xmlns:xlink="http://www.w3.org/1999/xlink" width="3300" height="2200">
 <!--glyph: "uni10072A.medium", point size: 100.000000, font version: "Version 15.0d7e11", template writer version: "5"-->
 <g id="Notes">
  <rect height="2200" id="artboard" style="fill:white;opacity:1" width="3300" x="0" y="0"/>
  <line id="" style="fill:none;stroke:black;opacity:1;stroke-width:0.5;" x1="263" x2="3036" y1="292" y2="292"/>
  <text style="stroke:none;fill:black;font-family:-apple-system,&quot;SF Pro Display&quot;,&quot;SF Pro Text&quot;,Helvetica,sans-serif;font-weight:bold;" transform="matrix(1 0 0 1 263 322)">Weight/Scale Variations</text>
  <text style="stroke:none;fill:black;font-family:-apple-system,&quot;SF Pro Display&quot;,&quot;SF Pro Text&quot;,Helvetica,sans-serif;text-anchor:middle;" transform="matrix(1 0 0 1 559.711 322)">Ultralight</text>
  <text style="stroke:none;fill:black;font-family:-apple-system,&quot;SF Pro Display&quot;,&quot;SF Pro Text&quot;,Helvetica,sans-serif;text-anchor:middle;" transform="matrix(1 0 0 1 856.422 322)">Thin</text>
  <text style="stroke:none;fill:black;font-family:-apple-system,&quot;SF Pro Display&quot;,&quot;SF Pro Text&quot;,Helvetica,sans-serif;text-anchor:middle;" transform="matrix(1 0 0 1 1153.13 322)">Light</text>
  <text style="stroke:none;fill:black;font-family:-apple-system,&quot;SF Pro Display&quot;,&quot;SF Pro Text&quot;,Helvetica,sans-serif;text-anchor:middle;" transform="matrix(1 0 0 1 1449.84 322)">Regular</text>
  <text style="stroke:none;fill:black;font-family:-apple-system,&quot;SF Pro Display&quot;,&quot;SF Pro Text&quot;,Helvetica,sans-serif;text-anchor:middle;" transform="matrix(1 0 0 1 1746.56 322)">Medium</text>
  <text style="stroke:none;fill:black;font-family:-apple-system,&quot;SF Pro Display&quot;,&quot;SF Pro Text&quot;,Helvetica,sans-serif;text-anchor:middle;" transform="matrix(1 0 0 1 2043.27 322)">Semibold</text>
  <text style="stroke:none;fill:black;font-family:-apple-system,&quot;SF Pro Display&quot;,&quot;SF Pro Text&quot;,Helvetica,sans-serif;text-anchor:middle;" transform="matrix(1 0 0 1 2339.98 322)">Bold</text>
  <text style="stroke:none;fill:black;font-family:-apple-system,&quot;SF Pro Display&quot;,&quot;SF Pro Text&quot;,Helvetica,sans-serif;text-anchor:middle;" transform="matrix(1 0 0 1 2636.69 322)">Heavy</text>
  <text style="stroke:none;fill:black;font-family:-apple-system,&quot;SF Pro Display&quot;,&quot;SF Pro Text&quot;,Helvetica,sans-serif;text-anchor:middle;" transform="matrix(1 0 0 1 2933.4 322)">Black</text>
  <line id="" style="fill:none;stroke:black;opacity:1;stroke-width:0.5;" x1="263" x2="3036" y1="1903" y2="1903"/>
  <g id="" transform="matrix(1 0 0 1 263 1933)">
   <path d="M 9.24805 0.830078 C 13.5547 0.830078 17.1387 -2.74414 17.1387 -7.05078 C 17.1387 -11.3574 13.5449 -14.9316 9.23828 -14.9316 C 4.94141 -14.9316 1.36719 -11.3574 1.36719 -7.05078 C 1.36719 -2.74414 4.95117 0.830078 9.24805 0.830078 Z M 9.24805 -0.654297 C 5.70312 -0.654297 2.87109 -3.49609 2.87109 -7.05078 C 2.87109 -10.6055 5.69336 -13.4473 9.23828 -13.4473 C 12.793 -13.4473 15.6348 -10.6055 15.6445 -7.05078 C 15.6543 -3.49609 12.8027 -0.654297 9.24805 -0.654297 Z M 9.22852 -3.42773 C 9.69727 -3.42773 9.9707 -3.74023 9.9707 -4.25781 L 9.9707 -6.31836 L 12.1973 -6.31836 C 12.6953 -6.31836 13.0371 -6.57227 13.0371 -7.04102 C 13.0371 -7.51953 12.7148 -7.7832 12.1973 -7.7832 L 9.9707 -7.7832 L 9.9707 -10.0098 C 9.9707 -10.5273 9.69727 -10.8496 9.22852 -10.8496 C 8.75977 -10.8496 8.50586 -10.5078 8.50586 -10.0098 L 8.50586 -7.7832 L 6.29883 -7.7832 C 5.78125 -7.7832 5.44922 -7.51953 5.44922 -7.04102 C 5.44922 -6.57227 5.80078 -6.31836 6.29883 -6.31836 L 8.50586 -6.31836 L 8.50586 -4.25781 C 8.50586 -3.75977 8.75977 -3.42773 9.22852 -3.42773 Z"/>
  </g>
  <g id="" transform="matrix(1 0 0 1 281.506 1933)">
   <path d="M 11.709 2.91016 C 17.1582 2.91016 21.6699 -1.60156 21.6699 -7.05078 C 21.6699 -12.4902 17.1484 -17.0117 11.6992 -17.0117 C 6.25977 -17.0117 1.74805 -12.4902 1.74805 -7.05078 C 1.74805 -1.60156 6.26953 2.91016 11.709 2.91016 Z M 11.709 1.25 C 7.09961 1.25 3.41797 -2.44141 3.41797 -7.05078 C 3.41797 -11.6504 7.08984 -15.3516 11.6992 -15.3516 C 16.3086 -15.3516 20 -11.6504 20.0098 -7.05078 C 20.0195 -2.44141 16.3184 1.25 11.709 1.25 Z M 11.6895 -2.41211 C 12.207 -2.41211 12.5195 -2.77344 12.5195 -3.33984 L 12.5195 -6.23047 L 15.5762 -6.23047 C 16.123 -6.23047 16.5039 -6.51367 16.5039 -7.03125 C 16.5039 -7.55859 16.1426 -7.86133 15.5762 -7.86133 L 12.5195 -7.86133 L 12.5195 -10.9277 C 12.5195 -11.5039 12.207 -11.8555 11.6895 -11.8555 C 11.1719 -11.8555 10.8789 -11.4844 10.8789 -10.9277 L 10.8789 -7.86133 L 7.83203 -7.86133 C 7.26562 -7.86133 6.89453 -7.55859 6.89453 -7.03125 C 6.89453 -6.51367 7.28516 -6.23047 7.83203 -6.23047 L 10.8789 -6.23047 L 10.8789 -3.33984 C 10.8789 -2.79297 11.1719 -2.41211 11.6895 -2.41211 Z"/>
  </g>
  <g id="" transform="matrix(1 0 0 1 304.924 1933)">
   <path d="M 14.9707 5.67383 C 21.9336 5.67383 27.6953 -0.078125 27.6953 -7.04102 C 27.6953 -14.0039 21.9238 -19.7559 14.9609 -19.7559 C 8.00781 -19.7559 2.25586 -14.0039 2.25586 -7.04102 C 2.25586 -0.078125 8.01758 5.67383 14.9707 5.67383 Z M 14.9707 3.85742 C 8.93555 3.85742 4.08203 -1.00586 4.08203 -7.04102 C 4.08203 -13.0762 8.92578 -17.9395 14.9609 -17.9395 C 21.0059 -17.9395 25.8594 -13.0762 25.8691 -7.04102 C 25.8789 -1.00586 21.0156 3.85742 14.9707 3.85742 Z M 14.9512 -1.06445 C 15.5176 -1.06445 15.8691 -1.45508 15.8691 -2.06055 L 15.8691 -6.13281 L 20.1074 -6.13281 C 20.6934 -6.13281 21.1133 -6.46484 21.1133 -7.02148 C 21.1133 -7.59766 20.7227 -7.93945 20.1074 -7.93945 L 15.8691 -7.93945 L 15.8691 -12.1875 C 15.8691 -12.8027 15.5176 -13.1934 14.9512 -13.1934 C 14.3848 -13.1934 14.0625 -12.7832 14.0625 -12.1875 L 14.0625 -7.93945 L 9.83398 -7.93945 C 9.21875 -7.93945 8.80859 -7.59766 8.80859 -7.02148 C 8.80859 -6.46484 9.23828 -6.13281 9.83398 -6.13281 L 14.0625 -6.13281 L 14.0625 -2.06055 C 14.0625 -1.47461 14.3848 -1.06445 14.9512 -1.06445 Z"/>
  </g>
  <text style="stroke:none;fill:black;font-family:-apple-system,&quot;SF Pro Display&quot;,&quot;SF Pro Text&quot;,Helvetica,sans-serif;font-weight:bold;" transform="matrix(1 0 0 1 263 1953)">Design Variations</text>
  <text style="stroke:none;fill:black;font-family:-apple-system,&quot;SF Pro Display&quot;,&quot;SF Pro Text&quot;,Helvetica,sans-serif;" transform="matrix(1 0 0 1 263 1971)">Symbols are supported in up to nine weights and three scales.</text>
  <text style="stroke:none;fill:black;font-family:-apple-system,&quot;SF Pro Display&quot;,&quot;SF Pro Text&quot;,Helvetica,sans-serif;" transform="matrix(1 0 0 1 263 1989)">For optimal layout with text and other symbols, vertically align</text>
  <text style="stroke:none;fill:black;font-family:-apple-system,&quot;SF Pro Display&quot;,&quot;SF Pro Text&quot;,Helvetica,sans-serif;" transform="matrix(1 0 0 1 263 2007)">symbols with the adjacent text.</text>
  <rect height="14" id="" style="fill:#00AEEF;stroke:none;opacity:0.4;" width="3" x="776" y="1919"/>
  <g id="" transform="matrix(1 0 0 1 779 1933)">
   <path d="M 10.5273 0 L 12.373 0 L 7.17773 -14.0918 L 5.43945 -14.0918 L 0.244141 0 L 2.08984 0 L 3.50586 -4.0332 L 9.11133 -4.0332 Z M 6.2793 -11.9531 L 6.33789 -11.9531 L 8.59375 -5.52734 L 4.02344 -5.52734 Z"/>
  </g>
  <rect height="14" id="" style="fill:#00AEEF;stroke:none;opacity:0.4;" width="3" x="791.617" y="1919"/>
  <text style="stroke:none;fill:black;font-family:-apple-system,&quot;SF Pro Display&quot;,&quot;SF Pro Text&quot;,Helvetica,sans-serif;font-weight:bold;" transform="matrix(1 0 0 1 776 1953)">Margins</text>
  <text style="stroke:none;fill:black;font-family:-apple-system,&quot;SF Pro Display&quot;,&quot;SF Pro Text&quot;,Helvetica,sans-serif;" transform="matrix(1 0 0 1 776 1971)">Leading and trailing margins on the left and right side of each symbol</text>
  <text style="stroke:none;fill:black;font-family:-apple-system,&quot;SF Pro Display&quot;,&quot;SF Pro Text&quot;,Helvetica,sans-serif;" transform="matrix(1 0 0 1 776 1989)">can be adjusted by modifying the width of the blue rectangles.</text>
  <text style="stroke:none;fill:black;font-family:-apple-system,&quot;SF Pro Display&quot;,&quot;SF Pro Text&quot;,Helvetica,sans-serif;" transform="matrix(1 0 0 1 776 2007)">Modifications are automatically applied proportionally to all</text>
  <text style="stroke:none;fill:black;font-family:-apple-system,&quot;SF Pro Display&quot;,&quot;SF Pro Text&quot;,Helvetica,sans-serif;" transform="matrix(1 0 0 1 776 2025)">scales and weights.</text>
  <g id="" transform="matrix(1 0 0 1 1289 1933)">
   <path d="M 2.83203 3.11523 L 4.375 4.6582 C 5.22461 5.48828 6.19141 5.41992 7.06055 4.46289 L 17.2754 -6.66016 C 17.7051 -6.36719 18.0957 -6.37695 18.5645 -6.47461 L 19.6094 -6.68945 L 20.3027 -5.99609 L 20.2539 -5.47852 C 20.1855 -4.95117 20.3516 -4.53125 20.8496 -4.0332 L 21.6602 -3.22266 C 22.168 -2.71484 22.8223 -2.68555 23.3008 -3.16406 L 26.5527 -6.41602 C 27.0312 -6.89453 27.0117 -7.54883 26.5039 -8.05664 L 25.6836 -8.87695 C 25.1855 -9.375 24.7754 -9.55078 24.2383 -9.47266 L 23.7109 -9.41406 L 23.0566 -10.0781 L 23.3398 -11.2207 C 23.4863 -11.7871 23.3398 -12.2559 22.7148 -12.8613 L 20.3027 -15.2539 C 16.7578 -18.7793 12.2266 -18.6719 9.11133 -15.5371 C 8.69141 -15.1074 8.64258 -14.5215 8.91602 -14.0918 C 9.15039 -13.7207 9.62891 -13.4961 10.2734 -13.6621 C 11.7871 -14.043 13.3008 -13.9258 14.7852 -12.9199 L 14.1602 -11.3379 C 13.9258 -10.752 13.9453 -10.2734 14.1797 -9.83398 L 3.01758 0.439453 C 2.08008 1.30859 1.97266 2.25586 2.83203 3.11523 Z M 10.6738 -15.1465 C 13.3398 -17.1387 16.6504 -16.8262 19.0527 -14.4141 L 21.6797 -11.8066 C 21.9141 -11.5723 21.9434 -11.3867 21.8848 -11.0938 L 21.5039 -9.53125 L 23.0762 -7.95898 L 24.043 -8.04688 C 24.3262 -8.07617 24.4141 -8.05664 24.6387 -7.83203 L 25.2637 -7.20703 L 22.5098 -4.46289 L 21.8848 -5.07812 C 21.6602 -5.30273 21.6406 -5.40039 21.6699 -5.68359 L 21.7578 -6.64062 L 20.1953 -8.20312 L 18.5742 -7.89062 C 18.291 -7.83203 18.1445 -7.83203 17.9102 -8.07617 L 15.7324 -10.2539 C 15.5078 -10.4883 15.4785 -10.625 15.6055 -10.9473 L 16.5527 -13.2227 C 14.9512 -14.7559 12.8418 -15.6055 10.8008 -14.9512 C 10.7129 -14.9219 10.6445 -14.9414 10.6152 -14.9805 C 10.5859 -15.0293 10.5859 -15.0781 10.6738 -15.1465 Z M 4.10156 2.41211 C 3.61328 1.91406 3.78906 1.61133 4.12109 1.30859 L 15.0781 -8.80859 L 16.3086 -7.57812 L 6.15234 3.34961 C 5.84961 3.68164 5.46875 3.7793 5.06836 3.37891 Z"/>
  </g>
  <text style="stroke:none;fill:black;font-family:-apple-system,&quot;SF Pro Display&quot;,&quot;SF Pro Text&quot;,Helvetica,sans-serif;font-weight:bold;" transform="matrix(1 0 0 1 1289 1953)">Exporting</text>
  <text style="stroke:none;fill:black;font-family:-apple-system,&quot;SF Pro Display&quot;,&quot;SF Pro Text&quot;,Helvetica,sans-serif;" transform="matrix(1 0 0 1 1289 1971)">Symbols should be outlined when exporting to ensure the</text>
  <text style="stroke:none;fill:black;font-family:-apple-system,&quot;SF Pro Display&quot;,&quot;SF Pro Text&quot;,Helvetica,sans-serif;" transform="matrix(1 0 0 1 1289 1989)">design is preserved when submitting to Xcode.</text>
  <text id="template-version" style="stroke:none;fill:black;font-family:-apple-system,&quot;SF Pro Display&quot;,&quot;SF Pro Text&quot;,Helvetica,sans-serif;text-anchor:end;" transform="matrix(1 0 0 1 3036 1933)">Template v.1.0</text>
  <text style="stroke:none;fill:black;font-family:-apple-system,&quot;SF Pro Display&quot;,&quot;SF Pro Text&quot;,Helvetica,sans-serif;text-anchor:end;" transform="matrix(1 0 0 1 3036 1951)">Generated from stop.circle</text>
  <text style="stroke:none;fill:black;font-family:-apple-system,&quot;SF Pro Display&quot;,&quot;SF Pro Text&quot;,Helvetica,sans-serif;text-anchor:end;" transform="matrix(1 0 0 1 3036 1969)">Typeset at 100 points</text>
  <text style="stroke:none;fill:black;font-family:-apple-system,&quot;SF Pro Display&quot;,&quot;SF Pro Text&quot;,Helvetica,sans-serif;" transform="matrix(1 0 0 1 263 726)">Small</text>
  <text style="stroke:none;fill:black;font-family:-apple-system,&quot;SF Pro Display&quot;,&quot;SF Pro Text&quot;,Helvetica,sans-serif;" transform="matrix(1 0 0 1 263 1156)">Medium</text>
  <text style="stroke:none;fill:black;font-family:-apple-system,&quot;SF Pro Display&quot;,&quot;SF Pro Text&quot;,Helvetica,sans-serif;" transform="matrix(1 0 0 1 263 1586)">Large</text>
 </g>
 <g id="Guides">
  <g id="H-reference" style="fill:#27AAE1;stroke:none;" transform="matrix(1 0 0 1 339 696)">
   <path d="M 54.9316 0 L 57.666 0 L 30.5664 -70.459 L 28.0762 -70.459 L 0.976562 0 L 3.66211 0 L 12.9395 -24.4629 L 45.7031 -24.4629 Z M 29.1992 -67.0898 L 29.4434 -67.0898 L 44.8242 -26.709 L 13.8184 -26.709 Z"/>
  </g>
  <line id="Baseline-S" style="fill:none;stroke:#27AAE1;opacity:1;stroke-width:0.577;" x1="263" x2="3036" y1="696" y2="696"/>
  <line id="Capline-S" style="fill:none;stroke:#27AAE1;opacity:1;stroke-width:0.577;" x1="263" x2="3036" y1="625.541" y2="625.541"/>
  <g id="H-reference" style="fill:#27AAE1;stroke:none;" transform="matrix(1 0 0 1 339 1126)">
   <path d="M 54.9316 0 L 57.666 0 L 30.5664 -70.459 L 28.0762 -70.459 L 0.976562 0 L 3.66211 0 L 12.9395 -24.4629 L 45.7031 -24.4629 Z M 29.1992 -67.0898 L 29.4434 -67.0898 L 44.8242 -26.709 L 13.8184 -26.709 Z"/>
  </g>
  <line id="Baseline-M" style="fill:none;stroke:#27AAE1;opacity:1;stroke-width:0.577;" x1="263" x2="3036" y1="1126" y2="1126"/>
  <line id="Capline-M" style="fill:none;stroke:#27AAE1;opacity:1;stroke-width:0.577;" x1="263" x2="3036" y1="1055.54" y2="1055.54"/>
  <g id="H-reference" style="fill:#27AAE1;stroke:none;" transform="matrix(1 0 0 1 339 1556)">
   <path d="M 54.9316 0 L 57.666 0 L 30.5664 -70.459 L 28.0762 -70.459 L 0.976562 0 L 3.66211 0 L 12.9395 -24.4629 L 45.7031 -24.4629 Z M 29.1992 -67.0898 L 29.4434 -67.0898 L 44.8242 -26.709 L 13.8184 -26.709 Z"/>
  </g>
  <line id="Baseline-L" style="fill:none;stroke:#27AAE1;opacity:1;stroke-width:0.577;" x1="263" x2="3036" y1="1556" y2="1556"/>
  <line id="Capline-L" style="fill:none;stroke:#27AAE1;opacity:1;stroke-width:0.577;" x1="263" x2="3036" y1="1485.54" y2="1485.54"/>
  <rect height="119.336" id="left-margin" style="fill:#00AEEF;stroke:none;opacity:0.4;" width="8.74023" x="1391.3" y="1030.79"/>
  <rect height="119.336" id="right-margin" style="fill:#00AEEF;stroke:none;opacity:0.4;" width="8.74023" x="1499.65" y="1030.79"/>
 </g>
 <g id="Symbols">
  <g id="Black-L" transform="matrix(1 0 0 1 2854.05 1556)">
   <path d="M 79.3457 32.8613 C 116.748 32.8613 147.412 2.19727 147.412 -35.2051 C 147.412 -72.6074 116.748 -103.271 79.2969 -103.271 C 41.8945 -103.271 11.2793 -72.6074 11.2793 -35.2051 C 11.2793 2.19727 41.9434 32.8613 79.3457 32.8613 Z M 79.3457 12.4023 C 52.9785 12.4023 31.7383 -8.83789 31.7383 -35.2051 C 31.7383 -61.5723 52.9297 -82.8125 79.2969 -82.8125 C 105.664 -82.8125 126.953 -61.5723 126.953 -35.2051 C 127.002 -8.83789 105.713 12.4023 79.3457 12.4023 Z M 56.7871 -19.3359 C 56.7871 -15.2832 59.668 -12.6465 64.0625 -12.6465 L 94.6777 -12.6465 C 99.0723 -12.6465 101.953 -15.2832 101.953 -19.3359 L 101.953 -51.0742 C 101.953 -55.127 99.0723 -57.7637 94.6777 -57.7637 L 64.0625 -57.7637 C 59.668 -57.7637 56.7871 -55.127 56.7871 -51.0742 Z"/>
  </g>
  <g id="Heavy-L" transform="matrix(1 0 0 1 2558.39 1556)">
   <path d="M 78.2715 31.7871 C 115.088 31.7871 145.312 1.61133 145.312 -35.2051 C 145.312 -72.0215 115.039 -102.197 78.2715 -102.197 C 41.4551 -102.197 11.2793 -72.0215 11.2793 -35.2051 C 11.2793 1.61133 41.5039 31.7871 78.2715 31.7871 Z M 78.2715 14.0137 C 51.0254 14.0137 29.0527 -7.95898 29.0527 -35.2051 C 29.0527 -62.5 50.9766 -84.4727 78.2715 -84.4727 C 105.518 -84.4727 127.49 -62.5 127.539 -35.2051 C 127.539 -7.95898 105.566 14.0137 78.2715 14.0137 Z M 55.8105 -19.1895 C 55.8105 -15.2344 58.5449 -12.7441 62.7441 -12.7441 L 93.8965 -12.7441 C 98.0957 -12.7441 100.83 -15.2344 100.83 -19.1895 L 100.83 -51.2207 C 100.83 -55.1758 98.0957 -57.7148 93.8965 -57.7148 L 62.7441 -57.7148 C 58.5449 -57.7148 55.8105 -55.1758 55.8105 -51.2207 Z"/>
  </g>
  <g id="Bold-L" transform="matrix(1 0 0 1 2262.88 1556)">
   <path d="M 77.0996 30.6152 C 113.232 30.6152 142.92 0.878906 142.92 -35.2051 C 142.92 -71.3379 113.184 -101.025 77.0508 -101.025 C 40.9668 -101.025 11.2793 -71.3379 11.2793 -35.2051 C 11.2793 0.878906 41.0156 30.6152 77.0996 30.6152 Z M 77.0996 15.8691 C 48.8281 15.8691 26.0742 -6.93359 26.0742 -35.2051 C 26.0742 -63.4766 48.7793 -86.2793 77.0508 -86.2793 C 105.371 -86.2793 128.125 -63.4766 128.174 -35.2051 C 128.174 -6.93359 105.371 15.8691 77.0996 15.8691 Z M 54.6875 -19.043 C 54.6875 -15.1855 57.2266 -12.793 61.2305 -12.793 L 92.9688 -12.793 C 97.0215 -12.793 99.5605 -15.1855 99.5605 -19.043 L 99.5605 -51.416 C 99.5605 -55.2246 97.0215 -57.6172 92.9688 -57.6172 L 61.2305 -57.6172 C 57.2266 -57.6172 54.6875 -55.2246 54.6875 -51.416 Z"/>
  </g>
  <g id="Semibold-L" transform="matrix(1 0 0 1 1966.97 1556)">
   <path d="M 76.2695 29.7852 C 111.914 29.7852 141.309 0.439453 141.309 -35.2051 C 141.309 -70.8496 111.865 -100.244 76.2695 -100.244 C 40.625 -100.244 11.2793 -70.8496 11.2793 -35.2051 C 11.2793 0.439453 40.6738 29.7852 76.2695 29.7852 Z M 76.2695 17.0898 C 47.3145 17.0898 24.0234 -6.25 24.0234 -35.2051 C 24.0234 -64.209 47.2656 -87.5 76.2695 -87.5 C 105.225 -87.5 128.564 -64.209 128.613 -35.2051 C 128.662 -6.25 105.273 17.0898 76.2695 17.0898 Z M 53.9062 -18.8965 C 53.9062 -15.1367 56.3477 -12.8418 60.2539 -12.8418 L 92.3828 -12.8418 C 96.2402 -12.8418 98.6816 -15.1367 98.6816 -18.8965 L 98.6816 -51.5137 C 98.6816 -55.2734 96.2402 -57.5684 92.3828 -57.5684 L 60.2539 -57.5684 C 56.3477 -57.5684 53.9062 -55.2734 53.9062 -51.5137 Z"/>
  </g>
  <g id="Medium-L" transform="matrix(1 0 0 1 1670.87 1556)">
   <path d="M 75.6836 29.1992 C 110.938 29.1992 140.088 0.0488281 140.088 -35.2051 C 140.088 -70.459 110.889 -99.6094 75.6348 -99.6094 C 40.3809 -99.6094 11.2793 -70.459 11.2793 -35.2051 C 11.2793 0.0488281 40.3809 29.1992 75.6836 29.1992 Z M 75.6836 18.0664 C 46.1426 18.0664 22.4609 -5.71289 22.4609 -35.2051 C 22.4609 -64.6973 46.1426 -88.4766 75.6348 -88.4766 C 105.127 -88.4766 128.906 -64.6973 128.906 -35.2051 C 128.955 -5.71289 105.176 18.0664 75.6836 18.0664 Z M 53.3203 -18.7988 C 53.3203 -15.1367 55.6641 -12.8906 59.4727 -12.8906 L 91.8945 -12.8906 C 95.6543 -12.8906 97.998 -15.1367 97.998 -18.7988 L 97.998 -51.6113 C 97.998 -55.2734 95.6543 -57.5195 91.8945 -57.5195 L 59.4727 -57.5195 C 55.6641 -57.5195 53.3203 -55.2734 53.3203 -51.6113 Z"/>
  </g>
  <g id="Regular-L" transform="matrix(1 0 0 1 1374.97 1556)">
   <path d="M 74.8535 28.3691 C 109.668 28.3691 138.477 -0.390625 138.477 -35.2051 C 138.477 -70.0195 109.619 -98.7793 74.8047 -98.7793 C 40.0391 -98.7793 11.2793 -70.0195 11.2793 -35.2051 C 11.2793 -0.390625 40.0879 28.3691 74.8535 28.3691 Z M 74.8535 19.2871 C 44.6777 19.2871 20.4102 -5.0293 20.4102 -35.2051 C 20.4102 -65.3809 44.6289 -89.6973 74.8047 -89.6973 C 105.029 -89.6973 129.297 -65.3809 129.346 -35.2051 C 129.395 -5.0293 105.078 19.2871 74.8535 19.2871 Z M 52.5879 -18.7012 C 52.5879 -15.0879 54.7852 -12.9395 58.4473 -12.9395 L 91.2598 -12.9395 C 94.9219 -12.9395 97.168 -15.0879 97.168 -18.7012 L 97.168 -51.709 C 97.168 -55.3223 94.9219 -57.5195 91.2598 -57.5195 L 58.4473 -57.5195 C 54.7852 -57.5195 52.5879 -55.3223 52.5879 -51.709 Z"/>
  </g>
  <g id="Light-L" transform="matrix(1 0 0 1 1079.18 1556)">
   <path d="M 73.9258 27.4902 C 108.301 27.4902 136.621 -0.830078 136.621 -35.1562 C 136.621 -69.5312 108.252 -97.8516 73.9258 -97.8516 C 39.5508 -97.8516 11.2793 -69.5312 11.2793 -35.1562 C 11.2793 -0.830078 39.5996 27.4902 73.9258 27.4902 Z M 73.9258 20.6055 C 43.1152 20.6055 18.2129 -4.3457 18.2129 -35.1562 C 18.2129 -66.0156 43.0664 -90.918 73.9258 -90.918 C 104.736 -90.918 129.688 -66.0156 129.736 -35.1562 C 129.736 -4.3457 104.785 20.6055 73.9258 20.6055 Z M 51.6113 -18.3105 C 51.6113 -14.8926 53.7109 -12.8418 57.1289 -12.8418 L 90.7227 -12.8418 C 94.1895 -12.8418 96.2891 -14.8926 96.2891 -18.3105 L 96.2891 -52.0508 C 96.2891 -55.4199 94.1895 -57.5195 90.7227 -57.5195 L 57.1289 -57.5195 C 53.7109 -57.5195 51.6113 -55.4199 51.6113 -52.0508 Z"/>
  </g>
  <g id="Thin-L" transform="matrix(1 0 0 1 783.693 1556)">
   <path d="M 72.7051 26.3184 C 106.494 26.3184 134.18 -1.36719 134.18 -35.1074 C 134.18 -68.8965 106.494 -96.582 72.7051 -96.582 C 38.9648 -96.582 11.2793 -68.8965 11.2793 -35.1074 C 11.2793 -1.36719 38.9648 26.3184 72.7051 26.3184 Z M 72.7051 22.3145 C 41.0156 22.3145 15.2832 -3.41797 15.2832 -35.1074 C 15.2832 -66.8457 41.0156 -92.5781 72.7051 -92.5781 C 104.395 -92.5781 130.176 -66.8457 130.176 -35.1074 C 130.176 -3.41797 104.443 22.3145 72.7051 22.3145 Z M 50.293 -17.7734 C 50.293 -14.6484 52.2949 -12.6953 55.4199 -12.6953 L 90.0391 -12.6953 C 93.1641 -12.6953 95.1172 -14.6484 95.1172 -17.7734 L 95.1172 -52.4414 C 95.1172 -55.5664 93.1641 -57.5195 90.0391 -57.5195 L 55.4199 -57.5195 C 52.2949 -57.5195 50.293 -55.5664 50.293 -52.4414 Z"/>
  </g>
  <g id="Ultralight-L" transform="matrix(1 0 0 1 487.616 1556)">
   <path d="M 72.1191 25.7324 C 105.566 25.7324 132.91 -1.61133 132.91 -35.1074 C 132.91 -68.5547 105.566 -95.8984 72.1191 -95.8984 C 38.623 -95.8984 11.2793 -68.5547 11.2793 -35.1074 C 11.2793 -1.61133 38.623 25.7324 72.1191 25.7324 Z M 72.1191 23.2422 C 39.9414 23.2422 13.7695 -2.97852 13.7695 -35.1074 C 13.7695 -67.2363 39.9414 -93.4082 72.1191 -93.4082 C 104.248 -93.4082 130.42 -67.2363 130.42 -35.1074 C 130.42 -2.97852 104.248 23.2422 72.1191 23.2422 Z M 49.6582 -17.5293 C 49.6582 -14.5508 51.5137 -12.6465 54.541 -12.6465 L 89.6973 -12.6465 C 92.6758 -12.6465 94.5312 -14.5508 94.5312 -17.5293 L 94.5312 -52.6855 C 94.5312 -55.6641 92.6758 -57.5684 89.6973 -57.5684 L 54.541 -57.5684 C 51.5137 -57.5684 49.6582 -55.6641 49.6582 -52.6855 Z"/>
  </g>
  <g id="Black-M" transform="matrix(1 0 0 1 2870.97 1126)">
   <path d="M 62.4023 18.457 C 91.9922 18.457 116.113 -5.61523 116.113 -35.2051 C 116.113 -64.7949 91.9922 -88.8672 62.4023 -88.8672 C 32.8125 -88.8672 8.74023 -64.7949 8.74023 -35.2051 C 8.74023 -5.61523 32.8125 18.457 62.4023 18.457 Z M 62.4023 0.195312 C 42.8711 0.195312 27.002 -15.625 27.002 -35.2051 C 27.002 -54.7363 42.8711 -70.6055 62.4023 -70.6055 C 81.9824 -70.6055 97.8027 -54.7363 97.8027 -35.2051 C 97.8027 -15.625 81.9824 0.195312 62.4023 0.195312 Z M 44.8242 -22.9004 C 44.8242 -19.7266 47.2168 -17.627 50.7324 -17.627 L 74.1699 -17.627 C 77.6855 -17.627 80.0781 -19.7266 80.0781 -22.9004 L 80.0781 -47.4609 C 80.0781 -50.6348 77.6855 -52.7832 74.1699 -52.7832 L 50.7324 -52.7832 C 47.2168 -52.7832 44.8242 -50.6348 44.8242 -47.4609 Z"/>
  </g>
  <g id="Heavy-M" transform="matrix(1 0 0 1 2575.19 1126)">
   <path d="M 61.5234 17.5781 C 90.5273 17.5781 114.258 -6.15234 114.258 -35.2051 C 114.258 -64.2578 90.5273 -87.9883 61.4746 -87.9883 C 32.4707 -87.9883 8.74023 -64.2578 8.74023 -35.2051 C 8.74023 -6.15234 32.4707 17.5781 61.5234 17.5781 Z M 61.5234 1.66016 C 41.1133 1.66016 24.6582 -14.8438 24.6582 -35.2051 C 24.6582 -55.5664 41.1133 -72.0703 61.4746 -72.0703 C 81.8848 -72.0703 98.3398 -55.5664 98.3398 -35.2051 C 98.3398 -14.8438 81.8848 1.66016 61.5234 1.66016 Z M 43.9941 -22.8516 C 43.9941 -19.7266 46.2402 -17.7246 49.6094 -17.7246 L 73.4375 -17.7246 C 76.8066 -17.7246 79.0527 -19.7266 79.0527 -22.8516 L 79.0527 -47.5586 C 79.0527 -50.6836 76.8066 -52.6855 73.4375 -52.6855 L 49.6094 -52.6855 C 46.2402 -52.6855 43.9941 -50.6836 43.9941 -47.5586 Z"/>
  </g>
  <g id="Bold-M" transform="matrix(1 0 0 1 2279.5 1126)">
   <path d="M 60.498 16.5039 C 88.8672 16.5039 112.207 -6.78711 112.207 -35.2051 C 112.207 -63.623 88.8672 -86.9629 60.4492 -86.9629 C 32.0312 -86.9629 8.74023 -63.623 8.74023 -35.2051 C 8.74023 -6.78711 32.0801 16.5039 60.498 16.5039 Z M 60.498 3.22266 C 39.1602 3.22266 22.0703 -13.916 22.0703 -35.2051 C 22.0703 -56.4941 39.1602 -73.6816 60.4492 -73.6816 C 81.7383 -73.6816 98.9258 -56.4941 98.9258 -35.2051 C 98.9746 -13.916 81.7871 3.22266 60.498 3.22266 Z M 43.0664 -22.8027 C 43.0664 -19.7266 45.166 -17.8223 48.3887 -17.8223 L 72.6074 -17.8223 C 75.8301 -17.8223 77.9297 -19.7266 77.9297 -22.8027 L 77.9297 -47.6562 C 77.9297 -50.6836 75.8301 -52.6367 72.6074 -52.6367 L 48.3887 -52.6367 C 45.166 -52.6367 43.0664 -50.6836 43.0664 -47.6562 Z"/>
  </g>
  <g id="Semibold-M" transform="matrix(1 0 0 1 1983.5 1126)">
   <path d="M 59.7656 15.8203 C 87.7441 15.8203 110.791 -7.22656 110.791 -35.2051 C 110.791 -63.1836 87.6953 -86.2793 59.7656 -86.2793 C 31.7871 -86.2793 8.74023 -63.1836 8.74023 -35.2051 C 8.74023 -7.22656 31.7871 15.8203 59.7656 15.8203 Z M 59.7656 4.3457 C 37.8418 4.3457 20.2637 -13.2812 20.2637 -35.2051 C 20.2637 -57.1289 37.793 -74.8047 59.7656 -74.8047 C 81.6895 -74.8047 99.3164 -57.1289 99.3652 -35.2051 C 99.3652 -13.2812 81.6895 4.3457 59.7656 4.3457 Z M 42.4316 -22.7051 C 42.4316 -19.7266 44.3848 -17.8711 47.5098 -17.8711 L 72.0215 -17.8711 C 75.1953 -17.8711 77.1484 -19.7266 77.1484 -22.7051 L 77.1484 -47.7051 C 77.1484 -50.7324 75.1953 -52.5879 72.0215 -52.5879 L 47.5098 -52.5879 C 44.3848 -52.5879 42.4316 -50.7324 42.4316 -47.7051 Z"/>
  </g>
  <g id="Medium-M" transform="matrix(1 0 0 1 1687.3 1126)">
   <path d="M 59.2285 15.2832 C 86.9141 15.2832 109.766 -7.56836 109.766 -35.2051 C 109.766 -62.8906 86.8652 -85.7422 59.1797 -85.7422 C 31.543 -85.7422 8.74023 -62.8906 8.74023 -35.2051 C 8.74023 -7.56836 31.5918 15.2832 59.2285 15.2832 Z M 59.2285 5.17578 C 36.8164 5.17578 18.8965 -12.8418 18.8965 -35.2051 C 18.8965 -57.6172 36.8164 -75.6348 59.1797 -75.6348 C 81.5918 -75.6348 99.6094 -57.6172 99.6582 -35.2051 C 99.707 -12.8418 81.6406 5.17578 59.2285 5.17578 Z M 41.9434 -22.7051 C 41.9434 -19.7266 43.8477 -17.9199 46.875 -17.9199 L 71.6309 -17.9199 C 74.6582 -17.9199 76.5625 -19.7266 76.5625 -22.7051 L 76.5625 -47.7539 C 76.5625 -50.7324 74.6582 -52.5391 71.6309 -52.5391 L 46.875 -52.5391 C 43.8477 -52.5391 41.9434 -50.7324 41.9434 -47.7539 Z"/>
  </g>
  <g id="Regular-M" transform="matrix(1 0 0 1 1391.3 1126)">
   <path d="M 58.5449 14.5508 C 85.791 14.5508 108.35 -8.00781 108.35 -35.2539 C 108.35 -62.4512 85.7422 -85.0586 58.4961 -85.0586 C 31.2988 -85.0586 8.74023 -62.4512 8.74023 -35.2539 C 8.74023 -8.00781 31.3477 14.5508 58.5449 14.5508 Z M 58.5449 6.25 C 35.498 6.25 17.0898 -12.207 17.0898 -35.2539 C 17.0898 -58.252 35.4492 -76.7578 58.4961 -76.7578 C 81.543 -76.7578 100 -58.252 100.049 -35.2539 C 100.098 -12.207 81.5918 6.25 58.5449 6.25 Z M 41.3086 -22.6562 C 41.3086 -19.7266 43.1152 -17.9688 46.0449 -17.9688 L 71.0449 -17.9688 C 74.0234 -17.9688 75.7812 -19.7266 75.7812 -22.6562 L 75.7812 -47.8516 C 75.7812 -50.7324 74.0234 -52.4902 71.0449 -52.4902 L 46.0449 -52.4902 C 43.1152 -52.4902 41.3086 -50.7324 41.3086 -47.8516 Z"/>
  </g>
  <g id="Light-M" transform="matrix(1 0 0 1 1095.42 1126)">
   <path d="M 57.7148 13.7695 C 84.5215 13.7695 106.689 -8.39844 106.689 -35.2051 C 106.689 -62.0117 84.5215 -84.1797 57.666 -84.1797 C 30.8594 -84.1797 8.74023 -62.0117 8.74023 -35.2051 C 8.74023 -8.39844 30.9082 13.7695 57.7148 13.7695 Z M 57.7148 7.4707 C 34.082 7.4707 15.0879 -11.5723 15.0879 -35.2051 C 15.0879 -58.8379 34.082 -77.832 57.666 -77.832 C 81.2988 -77.832 100.342 -58.8379 100.391 -35.2051 C 100.391 -11.5723 81.3477 7.4707 57.7148 7.4707 Z M 40.4297 -22.2656 C 40.4297 -19.5801 42.1387 -17.9199 44.873 -17.9199 L 70.5566 -17.9199 C 73.3398 -17.9199 75 -19.5801 75 -22.2656 L 75 -48.0957 C 75 -50.8301 73.3398 -52.4902 70.5566 -52.4902 L 44.873 -52.4902 C 42.1387 -52.4902 40.4297 -50.8301 40.4297 -48.0957 Z"/>
  </g>
  <g id="Thin-M" transform="matrix(1 0 0 1 799.806 1126)">
   <path d="M 56.6406 12.7441 C 82.9102 12.7441 104.492 -8.83789 104.492 -35.1562 C 104.492 -61.4746 82.9102 -83.0566 56.5918 -83.0566 C 30.3223 -83.0566 8.74023 -61.4746 8.74023 -35.1562 C 8.74023 -8.83789 30.3223 12.7441 56.6406 12.7441 Z M 56.6406 8.98438 C 32.2266 8.98438 12.4512 -10.791 12.4512 -35.1562 C 12.4512 -59.5215 32.2266 -79.2969 56.5918 -79.2969 C 81.0059 -79.2969 100.781 -59.5215 100.781 -35.1562 C 100.781 -10.791 81.0059 8.98438 56.6406 8.98438 Z M 39.2578 -21.8262 C 39.2578 -19.3359 40.8203 -17.8223 43.3105 -17.8223 L 69.9219 -17.8223 C 72.4121 -17.8223 73.9746 -19.3359 73.9746 -21.8262 L 73.9746 -48.4863 C 73.9746 -50.9766 72.4121 -52.4902 69.9219 -52.4902 L 43.3105 -52.4902 C 40.8203 -52.4902 39.2578 -50.9766 39.2578 -48.4863 Z"/>
  </g>
  <g id="Ultralight-M" transform="matrix(1 0 0 1 503.656 1126)">
   <path d="M 56.0547 12.207 C 82.0801 12.207 103.369 -9.08203 103.369 -35.1562 C 103.369 -61.1816 82.0801 -82.4707 56.0547 -82.4707 C 30.0293 -82.4707 8.74023 -61.1816 8.74023 -35.1562 C 8.74023 -9.08203 30.0293 12.207 56.0547 12.207 Z M 56.0547 9.81445 C 31.2988 9.81445 11.1328 -10.3516 11.1328 -35.1562 C 11.1328 -59.9121 31.2988 -80.0781 56.0547 -80.0781 C 80.8594 -80.0781 100.977 -59.9121 100.977 -35.1562 C 100.977 -10.3516 80.8594 9.81445 56.0547 9.81445 Z M 38.6719 -21.582 C 38.6719 -19.2383 40.1367 -17.7246 42.5293 -17.7246 L 69.6289 -17.7246 C 71.9727 -17.7246 73.4375 -19.2383 73.4375 -21.582 L 73.4375 -48.6816 C 73.4375 -51.0254 71.9727 -52.5391 69.6289 -52.5391 L 42.5293 -52.5391 C 40.1367 -52.5391 38.6719 -51.0254 38.6719 -48.6816 Z"/>
  </g>
  <g id="Black-S" transform="matrix(1 0 0 1 2884.57 696)">
   <path d="M 48.8281 6.78711 C 71.9727 6.78711 90.8203 -12.0605 90.8203 -35.2051 C 90.8203 -58.3496 71.9727 -77.1973 48.8281 -77.1973 C 25.6836 -77.1973 6.83594 -58.3496 6.83594 -35.2051 C 6.83594 -12.0605 25.6836 6.78711 48.8281 6.78711 Z M 48.8281 -7.37305 C 33.4473 -7.37305 20.9961 -19.8242 20.9961 -35.2051 C 20.9961 -50.5859 33.4473 -63.0371 48.8281 -63.0371 C 64.209 -63.0371 76.6602 -50.5859 76.6602 -35.2051 C 76.6602 -19.8242 64.209 -7.37305 48.8281 -7.37305 Z M 35.0586 -25.5859 C 35.0586 -23.0957 36.9141 -21.4355 39.6484 -21.4355 L 58.0566 -21.4355 C 60.791 -21.4355 62.6465 -23.0957 62.6465 -25.5859 L 62.6465 -44.8242 C 62.6465 -47.3145 60.791 -48.9746 58.0566 -48.9746 L 39.6484 -48.9746 C 36.9141 -48.9746 35.0586 -47.3145 35.0586 -44.8242 Z"/>
  </g>
  <g id="Heavy-S" transform="matrix(1 0 0 1 2588.47 696)">
   <path d="M 48.2422 6.15234 C 70.9961 6.15234 89.5996 -12.4512 89.5996 -35.2051 C 89.5996 -57.959 70.9961 -76.6113 48.1934 -76.6113 C 25.4395 -76.6113 6.83594 -57.959 6.83594 -35.2051 C 6.83594 -12.4512 25.4395 6.15234 48.2422 6.15234 Z M 48.2422 -6.39648 C 32.2754 -6.39648 19.4336 -19.2871 19.4336 -35.2051 C 19.4336 -51.1719 32.2754 -64.0137 48.1934 -64.0137 C 64.1602 -64.0137 77.002 -51.1719 77.0508 -35.2051 C 77.0508 -19.2871 64.1602 -6.39648 48.2422 -6.39648 Z M 34.5215 -25.5859 C 34.5215 -23.0957 36.2793 -21.5332 38.916 -21.5332 L 57.5195 -21.5332 C 60.2051 -21.5332 61.9629 -23.0957 61.9629 -25.5859 L 61.9629 -44.873 C 61.9629 -47.3145 60.2051 -48.9258 57.5195 -48.9258 L 38.916 -48.9258 C 36.2793 -48.9258 34.5215 -47.3145 34.5215 -44.873 Z"/>
  </g>
  <g id="Bold-S" transform="matrix(1 0 0 1 2292.44 696)">
   <path d="M 47.5586 5.46875 C 69.873 5.46875 88.2324 -12.8906 88.2324 -35.2051 C 88.2324 -57.5684 69.873 -75.9277 47.5098 -75.9277 C 25.1953 -75.9277 6.83594 -57.5684 6.83594 -35.2051 C 6.83594 -12.8906 25.1953 5.46875 47.5586 5.46875 Z M 47.5586 -5.32227 C 30.957 -5.32227 17.6758 -18.6523 17.6758 -35.2051 C 17.6758 -51.8066 30.957 -65.1367 47.5098 -65.1367 C 64.1113 -65.1367 77.4414 -51.8066 77.4414 -35.2051 C 77.4414 -18.6523 64.1113 -5.32227 47.5586 -5.32227 Z M 33.9355 -25.5371 C 33.9355 -23.1445 35.5469 -21.582 38.1348 -21.582 L 56.9824 -21.582 C 59.5215 -21.582 61.1816 -23.1445 61.1816 -25.5371 L 61.1816 -44.873 C 61.1816 -47.3145 59.5215 -48.877 56.9824 -48.877 L 38.1348 -48.877 C 35.5469 -48.877 33.9355 -47.3145 33.9355 -44.873 Z"/>
  </g>
  <g id="Semibold-S" transform="matrix(1 0 0 1 1996.2 696)">
   <path d="M 47.0703 4.98047 C 69.0918 4.98047 87.3047 -13.1836 87.3047 -35.2539 C 87.3047 -57.2754 69.0918 -75.4883 47.0215 -75.4883 C 25 -75.4883 6.83594 -57.2754 6.83594 -35.2539 C 6.83594 -13.1836 25.0488 4.98047 47.0703 4.98047 Z M 47.0703 -4.58984 C 30.0781 -4.58984 16.4551 -18.2129 16.4551 -35.2539 C 16.4551 -52.2461 30.0293 -65.8691 47.0215 -65.8691 C 64.0625 -65.8691 77.6855 -52.2461 77.7344 -35.2539 C 77.7344 -18.2129 64.0625 -4.58984 47.0703 -4.58984 Z M 33.4961 -25.5371 C 33.4961 -23.1445 35.0586 -21.6797 37.5977 -21.6797 L 56.5918 -21.6797 C 59.082 -21.6797 60.6445 -23.1445 60.6445 -25.5371 L 60.6445 -44.9219 C 60.6445 -47.3145 59.082 -48.8281 56.5918 -48.8281 L 37.5977 -48.8281 C 35.0586 -48.8281 33.4961 -47.3145 33.4961 -44.9219 Z"/>
  </g>
  <g id="Medium-S" transform="matrix(1 0 0 1 1699.83 696)">
   <path d="M 46.7285 4.63867 C 68.5547 4.63867 86.6211 -13.4277 86.6211 -35.2539 C 86.6211 -57.0312 68.5059 -75.1465 46.6797 -75.1465 C 24.8535 -75.1465 6.83594 -57.0312 6.83594 -35.2539 C 6.83594 -13.4277 24.9023 4.63867 46.7285 4.63867 Z M 46.7285 -4.00391 C 29.3945 -4.00391 15.5273 -17.9199 15.5273 -35.2539 C 15.5273 -52.5879 29.3457 -66.4551 46.6797 -66.4551 C 64.0137 -66.4551 77.8809 -52.5879 77.9297 -35.2539 C 77.9785 -17.9199 64.0625 -4.00391 46.7285 -4.00391 Z M 33.2031 -25.5371 C 33.2031 -23.1445 34.7168 -21.7285 37.1582 -21.7285 L 56.25 -21.7285 C 58.7402 -21.7285 60.2539 -23.1445 60.2539 -25.5371 L 60.2539 -44.9219 C 60.2539 -47.3145 58.7402 -48.7793 56.25 -48.7793 L 37.1582 -48.7793 C 34.7168 -48.7793 33.2031 -47.3145 33.2031 -44.9219 Z"/>
  </g>
  <g id="Regular-S" transform="matrix(1 0 0 1 1403.58 696)">
   <path d="M 46.2402 4.15039 C 67.7734 4.15039 85.6934 -13.7207 85.6934 -35.2539 C 85.6934 -56.7871 67.7246 -74.6582 46.1914 -74.6582 C 24.707 -74.6582 6.83594 -56.7871 6.83594 -35.2539 C 6.83594 -13.7207 24.7559 4.15039 46.2402 4.15039 Z M 46.2402 -3.27148 C 28.5156 -3.27148 14.3555 -17.4805 14.3555 -35.2539 C 14.3555 -53.0273 28.4668 -67.2363 46.1914 -67.2363 C 63.9648 -67.2363 78.1738 -53.0273 78.2227 -35.2539 C 78.2715 -17.4805 64.0137 -3.27148 46.2402 -3.27148 Z M 32.7637 -25.5371 C 32.7637 -23.1445 34.2285 -21.7773 36.6211 -21.7773 L 55.8594 -21.7773 C 58.3008 -21.7773 59.7656 -23.1445 59.7656 -25.5371 L 59.7656 -44.9707 C 59.7656 -47.3145 58.3008 -48.7305 55.8594 -48.7305 L 36.6211 -48.7305 C 34.2285 -48.7305 32.7637 -47.3145 32.7637 -44.9707 Z"/>
  </g>
  <g id="Light-S" transform="matrix(1 0 0 1 1107.6 696)">
   <path d="M 45.5078 3.4668 C 66.6992 3.4668 84.2285 -14.0625 84.2285 -35.2051 C 84.2285 -56.3965 66.6504 -73.9258 45.5078 -73.9258 C 24.3164 -73.9258 6.83594 -56.3965 6.83594 -35.2051 C 6.83594 -14.0625 24.3652 3.4668 45.5078 3.4668 Z M 45.5078 -2.24609 C 27.2461 -2.24609 12.5977 -16.9434 12.5977 -35.2051 C 12.5977 -53.5156 27.1973 -68.2129 45.5078 -68.2129 C 63.7695 -68.2129 78.4668 -53.5156 78.5156 -35.2051 C 78.5156 -16.9434 63.8184 -2.24609 45.5078 -2.24609 Z M 31.9824 -25.2441 C 31.9824 -22.998 33.3496 -21.6797 35.5957 -21.6797 L 55.4688 -21.6797 C 57.7148 -21.6797 59.0332 -22.998 59.0332 -25.2441 L 59.0332 -45.2148 C 59.0332 -47.4121 57.7148 -48.7305 55.4688 -48.7305 L 35.5957 -48.7305 C 33.3496 -48.7305 31.9824 -47.4121 31.9824 -45.2148 Z"/>
  </g>
  <g id="Thin-S" transform="matrix(1 0 0 1 811.867 696)">
   <path d="M 44.5801 2.53906 C 65.2832 2.53906 82.2754 -14.4531 82.2754 -35.2051 C 82.2754 -55.9082 65.2344 -72.9004 44.5312 -72.9004 C 23.8281 -72.9004 6.83594 -55.9082 6.83594 -35.2051 C 6.83594 -14.4531 23.877 2.53906 44.5801 2.53906 Z M 44.5801 -0.878906 C 25.5859 -0.878906 10.2539 -16.2109 10.2539 -35.2051 C 10.2539 -54.1504 25.5859 -69.4824 44.5312 -69.4824 C 63.5254 -69.4824 78.8574 -54.1504 78.8574 -35.2051 C 78.8574 -16.2109 63.5254 -0.878906 44.5801 -0.878906 Z M 30.957 -24.8047 C 30.957 -22.8516 32.2266 -21.582 34.2285 -21.582 L 54.8828 -21.582 C 56.8848 -21.582 58.1543 -22.8516 58.1543 -24.8047 L 58.1543 -45.5566 C 58.1543 -47.5098 56.8848 -48.7793 54.8828 -48.7793 L 34.2285 -48.7793 C 32.2266 -48.7793 30.957 -47.5098 30.957 -45.5566 Z"/>
  </g>
  <g id="Ultralight-S" transform="matrix(1 0 0 1 515.644 696)">
   <path d="M 44.043 2.05078 C 64.502 2.05078 81.2988 -14.6973 81.2988 -35.1562 C 81.2988 -55.6152 64.502 -72.3633 44.043 -72.3633 C 23.584 -72.3633 6.83594 -55.6152 6.83594 -35.1562 C 6.83594 -14.6973 23.584 2.05078 44.043 2.05078 Z M 44.043 -0.146484 C 24.7559 -0.146484 9.08203 -15.8691 9.08203 -35.1562 C 9.08203 -54.4434 24.7559 -70.166 44.043 -70.166 C 63.3789 -70.166 79.0527 -54.4434 79.0527 -35.1562 C 79.0527 -15.8691 63.3789 -0.146484 44.043 -0.146484 Z M 30.4199 -24.6094 C 30.4199 -22.7051 31.6406 -21.5332 33.4961 -21.5332 L 54.5898 -21.5332 C 56.4941 -21.5332 57.666 -22.7051 57.666 -24.6094 L 57.666 -45.7031 C 57.666 -47.6074 56.4941 -48.7793 54.5898 -48.7793 L 33.4961 -48.7793 C 31.6406 -48.7793 30.4199 -47.6074 30.4199 -45.7031 Z"/>
  </g>
 </g>
</svg>
